<svg width="77" height="72" fill="none" xmlns="http://www.w3.org/2000/svg">
  <path d="M31.1185 65h16.0642V41.2H31.1185V65Zm2.9116-20.9h10.1406v18H34.0301v-18Z" fill="#83B3D3"/>
  <path d="M74.3916 39.3 76.5 37.2l-9.9398-9.9V0H52.6044v13.6L38.9498 0 1.5 37.2l2.10843 2.1 7.83137-7.8v37.6H7.42369V72H71.5803v-2.9h-5.1205V31.5l7.9318 7.8ZM63.5482 69.1H14.3514V28.5L38.9498 4.1l24.5984 24.4v40.6Zm0-44.7-7.9317-7.9V2.9h7.9317v21.5Z" fill="#83B3D3"/>
  <path d="M31.3193 27.1c0 4.3 3.514 7.7 7.7309 7.7 4.3173 0 7.8313-3.5 7.8313-7.7 0-4.3-3.514-7.7-7.8313-7.7-4.2169 0-7.7309 3.4-7.7309 7.7Zm7.8313-5c2.7108 0 5.0201 2.2 5.0201 4.9s-2.2089 4.9-5.0201 4.9c-2.7108 0-5.0201-2.2-5.0201-4.9s2.2089-4.9 5.0201-4.9ZM21.4799 41.2h-3.012v3.9h3.012v-3.9ZM27.4036 41.2h-3.012v3.9h3.012v-3.9ZM21.4799 47.2h-3.012v3.9h3.012v-3.9ZM27.4036 47.2h-3.012v3.9h3.012v-3.9ZM53.508 41.2h-3.012v3.9h3.012v-3.9ZM59.4317 41.2h-3.012v3.9h3.012v-3.9ZM53.508 47.2h-3.012v3.9h3.012v-3.9ZM59.4317 47.2h-3.012v3.9h3.012v-3.9Z" fill="#83B3D3"/>
</svg>
